<?xml version="1.0" standalone="no"?>
<!DOCTYPE svg PUBLIC "-//W3C//DTD SVG 20010904//EN"
 "http://www.w3.org/TR/2001/REC-SVG-20010904/DTD/svg10.dtd">
<svg version="1.0" xmlns="http://www.w3.org/2000/svg"
 width="700.000000pt" height="700.000000pt" viewBox="0 0 700.000000 700.000000"
 preserveAspectRatio="xMidYMid meet">
<metadata>
Created by potrace 1.14, written by Peter Selinger 2001-2017
</metadata>
<g transform="translate(0.000000,700.000000) scale(0.100000,-0.100000)"
fill="#000000" stroke="none">
<path d="M3832 6783 c-41 -35 -33 -73 27 -133 68 -68 122 -87 155 -54 9 8 16
26 16 39 0 30 -93 133 -137 152 -40 16 -37 16 -61 -4z"/>
<path d="M4229 6746 c-62 -47 -103 -108 -95 -141 8 -30 45 -50 78 -41 44 11
138 116 138 154 0 27 -33 62 -59 62 -10 0 -38 -15 -62 -34z"/>
<path d="M3945 6461 c-33 -20 -107 -97 -123 -127 -13 -26 2 -62 32 -75 21 -10
30 -9 52 6 65 42 134 122 134 154 0 13 -45 61 -57 61 -4 0 -21 -8 -38 -19z"/>
<path d="M4159 6452 c-37 -33 -35 -50 14 -102 69 -73 108 -101 130 -94 32 9
57 34 57 56 0 21 -138 168 -158 168 -6 0 -26 -13 -43 -28z"/>
<path d="M2332 6310 c-49 -20 -40 -58 76 -329 68 -159 100 -211 132 -211 24 0
60 38 60 63 0 39 -166 427 -199 465 -21 24 -33 26 -69 12z"/>
<path d="M5934 6211 c-173 -80 -179 -318 -10 -397 121 -56 264 3 300 125 29
100 -6 200 -92 260 -46 32 -141 38 -198 12z m138 -132 c45 -24 46 -100 1 -136
-56 -45 -132 -13 -135 57 -3 82 60 119 134 79z"/>
<path d="M3461 6171 c-20 -37 -17 -184 5 -205 22 -22 83 -21 91 1 13 34 9 189
-6 206 -19 24 -77 22 -90 -2z"/>
<path d="M4509 6057 c-34 -26 -95 -183 -91 -236 4 -54 62 -80 96 -43 18 21 82
175 90 217 4 19 -2 34 -19 51 -26 26 -51 30 -76 11z"/>
<path d="M1169 5954 c-81 -25 -159 -127 -164 -217 -8 -129 118 -259 244 -252
51 3 132 34 164 63 30 27 68 109 74 163 5 42 1 58 -26 113 -33 68 -70 102
-139 129 -51 20 -91 21 -153 1z m128 -132 c74 -40 76 -142 3 -185 -77 -46
-170 13 -163 102 7 73 93 118 160 83z"/>
<path d="M5619 5703 c-279 -270 -399 -401 -399 -435 0 -4 9 -17 20 -28 38 -38
90 0 348 260 205 206 228 250 154 289 -21 11 -30 5 -123 -86z"/>
<path d="M3349 5786 c-2 -2 -33 -7 -69 -11 -86 -9 -297 -45 -350 -60 -3 -1
-18 -5 -35 -9 -79 -21 -150 -48 -167 -63 -36 -32 -14 -103 32 -103 10 0 72 14
137 31 114 29 189 46 246 55 15 2 42 6 60 9 155 24 494 24 632 0 17 -3 57 -10
89 -16 33 -6 113 -26 178 -45 586 -168 1071 -576 1343 -1129 90 -183 170 -428
191 -580 3 -27 8 -52 9 -55 8 -13 19 -196 19 -310 0 -209 -19 -356 -73 -560
-71 -265 -219 -557 -399 -784 -53 -67 -220 -239 -289 -298 -124 -106 -303
-221 -454 -291 -209 -99 -331 -141 -533 -181 -6 -2 -33 -6 -61 -10 -27 -4 -61
-10 -75 -12 -142 -22 -406 -22 -545 1 -122 20 -171 30 -250 51 -395 103 -707
277 -981 549 -133 132 -208 223 -303 370 -231 354 -345 747 -343 1180 1 259
37 465 122 713 54 155 52 195 -8 207 -33 6 -67 -35 -100 -122 -30 -77 -77
-230 -86 -277 -2 -11 -13 -68 -24 -126 -59 -304 -46 -671 33 -980 68 -263 234
-602 403 -820 71 -92 292 -321 345 -357 17 -13 48 -36 67 -53 133 -117 443
-288 640 -353 201 -67 294 -87 540 -117 77 -9 447 -6 510 4 19 3 51 8 70 11
82 13 110 18 204 42 251 62 515 184 754 349 53 37 99 70 102 73 3 3 34 31 70
61 286 244 516 574 653 940 61 165 108 372 133 595 8 72 8 345 0 407 -3 23 -8
63 -11 88 -5 43 -8 61 -20 120 -2 14 -7 36 -9 50 -58 309 -212 648 -414 910
-265 344 -624 614 -1017 764 -146 56 -309 98 -450 116 -49 6 -103 13 -120 16
-39 6 -391 15 -396 10z"/>
<path d="M2470 5505 c-14 -17 -5 -51 15 -59 18 -6 44 2 46 15 1 5 2 15 3 22 5
33 -41 50 -64 22z"/>
<path d="M3319 5476 c-2 -2 -31 -6 -64 -9 -141 -14 -357 -71 -505 -134 -506
-213 -904 -627 -1096 -1138 -37 -101 -89 -298 -99 -378 -4 -28 -10 -79 -15
-112 -8 -61 -6 -390 3 -435 3 -14 8 -47 12 -73 13 -99 49 -241 87 -352 169
-491 563 -921 1046 -1144 101 -46 303 -115 366 -125 21 -4 41 -8 45 -11 4 -2
30 -7 57 -11 27 -3 58 -8 69 -10 120 -23 400 -23 585 1 130 17 398 95 475 138
31 18 41 29 43 53 2 20 -3 38 -14 48 -22 22 -60 17 -200 -28 -89 -28 -175 -54
-204 -61 -3 0 -27 -4 -53 -9 -27 -4 -56 -9 -65 -11 -137 -25 -452 -22 -597 7
-27 5 -61 12 -75 14 -175 34 -439 142 -606 249 -144 92 -328 254 -420 370 -21
28 -42 52 -45 55 -25 20 -150 222 -199 323 -51 107 -119 288 -134 359 -3 12
-8 34 -11 48 -28 124 -38 222 -39 370 -1 147 8 289 19 323 2 7 7 30 10 51 9
63 43 187 76 282 130 370 380 692 703 908 222 149 454 243 716 291 111 20 448
29 550 15 222 -32 372 -77 558 -165 491 -235 871 -689 1001 -1200 34 -135 53
-296 54 -470 2 -259 -5 -299 -112 -663 -33 -112 -31 -136 11 -143 49 -9 66 1
91 55 85 178 140 469 141 736 1 396 -88 726 -277 1035 -40 65 -143 210 -181
255 -59 69 -212 217 -281 272 -136 108 -336 225 -495 289 -119 47 -313 100
-420 114 -30 4 -64 9 -75 12 -24 5 -431 13 -436 9z"/>
<path d="M1621 5404 c-17 -14 -31 -35 -31 -46 0 -21 108 -136 147 -157 20 -10
26 -8 53 20 16 18 30 35 30 39 0 19 -144 170 -162 170 -3 0 -20 -12 -37 -26z"/>
<path d="M2274 5385 c-7 -30 10 -54 34 -50 9 2 20 4 23 4 12 2 17 38 7 55 -15
26 -57 20 -64 -9z"/>
<path d="M2113 5280 c-13 -5 -23 -18 -23 -28 0 -23 30 -52 53 -52 20 0 34 47
20 68 -12 20 -23 23 -50 12z"/>
<path d="M1943 5133 c-18 -7 -16 -48 2 -63 23 -19 55 -3 55 30 0 33 -23 47
-57 33z"/>
<path d="M1795 4967 c-10 -8 -16 -23 -13 -38 2 -19 9 -24 33 -24 25 0 31 4 33
27 4 34 -26 54 -53 35z"/>
<path d="M282 4858 c-61 -66 -28 -84 658 -365 119 -49 216 -82 234 -79 22 3
56 37 56 55 -1 27 -24 48 -81 74 -206 94 -767 323 -814 333 -24 4 -35 0 -53
-18z"/>
<path d="M1658 4789 c-42 -24 -7 -79 40 -63 32 11 39 35 17 58 -19 18 -33 20
-57 5z"/>
<path d="M3613 4703 c-5 -1 -190 -4 -413 -6 -339 -3 -411 -6 -440 -19 -73 -33
-124 -106 -130 -188 -2 -25 -3 -246 -4 -492 l-1 -448 -81 -40 c-149 -74 -246
-166 -311 -297 -32 -66 -35 -79 -38 -171 -1 -57 4 -120 11 -151 16 -60 65
-141 136 -223 l49 -57 -15 -33 c-9 -18 -48 -69 -86 -113 -39 -44 -70 -89 -70
-100 0 -38 28 -65 68 -65 74 1 308 63 409 110 53 24 109 37 148 34 57 -6 210
-4 255 1 241 32 490 176 585 339 78 133 89 289 30 422 -13 30 -23 55 -22 55 1
1 64 2 140 3 l139 2 64 -72 c36 -40 74 -83 85 -95 58 -68 150 -169 200 -221
45 -46 63 -58 87 -58 55 0 60 26 61 276 l1 172 64 0 c91 0 168 26 215 74 72
71 74 94 74 663 0 448 -5 524 -37 580 -27 45 -99 98 -151 111 -25 6 -999 13
-1022 7z m1042 -173 l36 -35 -3 -505 c-3 -457 -5 -508 -20 -537 -10 -17 -23
-35 -29 -39 -7 -4 -62 -8 -124 -9 -117 -3 -147 -11 -166 -46 -9 -18 -17 -118
-18 -262 l-1 -39 -27 33 c-16 19 -35 41 -43 49 -31 33 -206 224 -223 243 -16
19 -30 21 -241 22 l-224 2 -66 42 c-119 75 -252 127 -351 139 -33 4 -134 7
-225 7 -91 0 -168 3 -171 8 -3 4 -6 198 -8 431 -2 444 0 469 42 505 9 7 40 16
69 20 29 3 436 6 905 6 l852 0 36 -35z m-1470 -1085 c39 -10 75 -21 80 -25 6
-4 30 -15 54 -24 70 -27 174 -99 213 -147 192 -237 71 -509 -282 -631 -30 -10
-67 -21 -82 -23 -99 -18 -168 -22 -280 -19 -137 5 -136 5 -288 -60 -73 -31
-120 -44 -120 -33 0 2 11 27 25 56 50 103 49 109 -59 221 -69 72 -100 122
-120 192 -31 109 16 238 123 336 90 83 261 159 396 175 73 9 274 -2 340 -18z"/>
<path d="M3006 4420 c-67 -13 -90 -74 -39 -107 24 -16 80 -17 784 -18 718 0
758 1 777 18 25 23 22 61 -7 90 l-22 22 -727 1 c-400 1 -745 -2 -766 -6z"/>
<path d="M3002 4100 c-48 -7 -62 -21 -62 -62 0 -50 17 -51 815 -52 402 -1 742
2 757 7 17 4 30 16 34 31 9 39 -11 63 -58 72 -53 9 -1426 13 -1486 4z"/>
<path d="M3292 3780 c-60 -9 -72 -29 -52 -87 l11 -29 623 1 c572 1 626 2 650
18 35 23 35 61 -1 84 -25 17 -70 18 -607 19 -320 0 -601 -3 -624 -6z"/>
<path d="M2872 3355 c-63 -19 -99 -43 -111 -74 -14 -33 -4 -64 29 -81 20 -11
26 -10 111 10 61 14 98 9 123 -16 14 -13 14 -19 2 -42 -8 -15 -31 -43 -51 -62
-53 -50 -85 -104 -87 -147 -2 -59 10 -82 45 -92 42 -11 65 4 95 60 13 24 47
68 75 96 64 65 86 114 82 182 -3 61 -38 113 -97 143 -61 32 -152 41 -216 23z"/>
<path d="M2899 2801 c-20 -20 -29 -39 -29 -61 0 -35 46 -90 75 -90 59 0 102
65 82 123 -20 60 -82 74 -128 28z"/>
<path d="M1534 4596 c-7 -28 11 -66 31 -66 19 0 45 28 45 49 0 44 -65 58 -76
17z"/>
<path d="M5985 4602 c-31 -6 -137 -53 -167 -75 -34 -23 -36 -56 -5 -92 l22
-26 86 31 c108 39 155 75 145 113 -7 30 -50 56 -81 49z"/>
<path d="M6805 4338 c-25 -13 -105 -99 -105 -113 0 -18 50 -65 69 -65 17 0
121 100 121 117 0 14 -30 52 -48 62 -11 6 -25 5 -37 -1z"/>
<path d="M6459 4306 c-14 -29 8 -75 54 -118 38 -34 69 -36 97 -6 24 26 24 31
5 67 -38 74 -133 109 -156 57z"/>
<path d="M354 4071 c-35 -21 -73 -70 -79 -101 -5 -26 27 -60 57 -60 12 0 36
10 54 22 63 43 83 113 42 142 -29 20 -36 20 -74 -3z"/>
<path d="M52 4070 c-25 -11 -41 -45 -34 -72 7 -27 70 -87 98 -94 15 -4 34 0
50 11 22 14 25 22 21 51 -7 40 -32 76 -69 98 -29 18 -34 18 -66 6z"/>
<path d="M6484 4025 c-60 -61 -61 -112 -3 -134 23 -8 31 -4 76 39 63 61 70 84
36 116 -37 34 -58 30 -109 -21z"/>
<path d="M6731 4044 c-21 -27 -19 -44 11 -84 45 -57 117 -79 138 -41 19 36 11
63 -34 107 -51 52 -84 57 -115 18z"/>
<path d="M103 3815 c-44 -19 -92 -87 -85 -120 9 -50 63 -57 113 -13 61 55 75
106 37 132 -27 19 -25 19 -65 1z"/>
<path d="M304 3813 c-44 -44 -35 -83 31 -142 40 -35 44 -36 80 -19 50 22 45
74 -11 130 -40 41 -78 52 -100 31z"/>
<path d="M5985 3582 c-46 -10 -53 -69 -13 -105 18 -15 44 -17 264 -15 237 3
244 4 266 25 32 32 16 74 -32 85 -37 9 -451 17 -485 10z"/>
<path d="M840 3567 c-19 -9 -26 -22 -28 -48 -4 -45 17 -69 61 -70 76 -3 134 3
154 17 50 32 53 87 6 105 -35 13 -164 11 -193 -4z"/>
<path d="M5149 2604 c-17 -21 0 -48 33 -52 30 -4 43 20 28 49 -13 23 -43 25
-61 3z"/>
<path d="M1055 2567 c-192 -82 -241 -118 -224 -164 18 -48 59 -50 163 -7 158
67 236 116 236 148 0 14 -52 66 -66 66 -5 -1 -54 -20 -109 -43z"/>
<path d="M5798 2598 c-64 -52 -12 -93 282 -220 265 -114 304 -121 315 -55 4
17 -2 34 -17 51 -34 39 -491 236 -546 236 -10 0 -25 -6 -34 -12z"/>
<path d="M510 2472 c-57 -7 -92 -26 -134 -73 -112 -124 -55 -321 105 -359 163
-39 314 112 273 272 -27 106 -132 175 -244 160z m77 -141 c39 -24 50 -66 29
-115 -17 -41 -51 -59 -96 -49 -75 15 -97 126 -32 166 35 22 60 21 99 -2z"/>
<path d="M5039 2413 c-8 -22 -7 -30 7 -40 28 -21 53 -16 60 12 13 52 -48 78
-67 28z"/>
<path d="M6670 2405 c-58 -18 -115 -66 -143 -118 -27 -52 -30 -175 -5 -222 76
-142 263 -178 381 -74 100 87 110 250 23 342 -68 72 -168 100 -256 72z m134
-139 c78 -50 62 -170 -26 -197 -46 -15 -81 -6 -112 28 -34 37 -40 72 -21 121
27 66 99 88 159 48z"/>
<path d="M4906 2258 c-30 -43 23 -89 56 -49 22 28 22 35 2 55 -21 22 -40 20
-58 -6z"/>
<path d="M4757 2109 c-28 -39 3 -80 44 -59 21 12 24 32 9 61 -14 25 -35 24
-53 -2z"/>
<path d="M4608 1993 c-35 -8 -33 -67 2 -76 20 -5 43 14 46 38 3 19 -27 42 -48
38z"/>
<path d="M4411 1876 c-19 -26 -20 -46 0 -60 25 -17 56 -10 65 16 11 36 -43 72
-65 44z"/>
<path d="M1704 1791 c-66 -41 -374 -362 -405 -423 l-20 -38 25 -25 c17 -17 30
-22 47 -18 46 12 439 421 439 456 0 14 -17 37 -41 55 -12 9 -21 7 -45 -7z"/>
<path d="M5253 1801 c-21 -14 -31 -45 -21 -70 20 -53 185 -227 225 -237 28 -8
68 17 76 46 4 16 -9 38 -52 88 -106 123 -198 193 -228 173z"/>
<path d="M2516 1239 c-27 -22 -86 -136 -104 -201 -8 -31 -7 -40 9 -57 44 -47
95 -13 147 96 41 85 49 131 25 149 -41 33 -50 34 -77 13z"/>
<path d="M4444 1232 c-35 -23 -36 -62 -4 -137 195 -457 226 -522 252 -536 23
-12 58 -2 80 23 16 19 16 23 -4 76 -27 73 -174 405 -224 505 -32 66 -41 77
-63 77 -14 0 -31 -4 -37 -8z"/>
<path d="M5371 1161 c-34 -34 -26 -66 29 -126 76 -79 132 -96 156 -46 20 40
-19 109 -90 158 -49 33 -72 37 -95 14z"/>
<path d="M5822 1163 c-40 -19 -110 -97 -119 -131 -11 -44 26 -79 71 -68 27 7
100 73 129 117 14 21 15 31 6 57 -6 18 -15 32 -19 32 -5 0 -14 2 -22 5 -7 2
-28 -3 -46 -12z"/>
<path d="M3472 1077 c-15 -17 -28 -84 -26 -127 1 -19 2 -48 3 -65 2 -42 14
-57 48 -61 55 -6 65 12 71 123 4 93 3 102 -17 122 -24 24 -63 28 -79 8z"/>
<path d="M1384 890 c-41 -16 -41 -61 1 -116 32 -42 87 -84 109 -84 20 0 66 44
66 63 0 32 -114 148 -144 146 -6 0 -20 -4 -32 -9z"/>
<path d="M1754 878 c-54 -43 -104 -103 -104 -125 0 -12 7 -29 16 -37 31 -32
85 -13 145 51 51 53 56 77 25 108 -31 31 -45 31 -82 3z"/>
<path d="M5419 772 c-81 -80 -90 -136 -26 -153 50 -13 158 80 171 148 6 28
-29 63 -61 63 -19 0 -43 -17 -84 -58z"/>
<path d="M5722 814 c-38 -27 -23 -81 40 -141 50 -48 85 -63 117 -52 33 13 42
28 34 59 -9 38 -39 76 -90 115 -51 39 -68 42 -101 19z"/>
<path d="M3442 645 c-61 -14 -123 -67 -149 -125 -23 -54 -21 -147 5 -197 57
-110 184 -152 297 -99 122 56 168 185 110 303 -50 99 -151 144 -263 118z m85
-124 c25 -2 63 -46 64 -76 3 -52 0 -62 -27 -89 -59 -58 -154 -12 -154 74 0 34
6 48 29 69 18 17 39 27 53 25 13 -1 28 -3 35 -3z"/>
<path d="M1415 545 c-53 -53 -60 -67 -55 -110 5 -50 63 -47 124 6 79 70 91
120 36 149 -33 18 -48 11 -105 -45z"/>
<path d="M1669 579 c-33 -33 -19 -75 42 -132 45 -42 56 -48 88 -45 28 2 39 9
49 31 13 26 11 32 -12 68 -30 44 -100 99 -128 99 -10 0 -27 -9 -39 -21z"/>
</g>
</svg>
